<svg width="145" height="46" viewBox="0 0 145 46" fill="none" xmlns="http://www.w3.org/2000/svg">
    <path d="M14.9 39.15C13.4333 39.15 12.25 38.7167 11.35 37.85C10.45 36.9833 10 35.6667 10 33.9C10 32.5333 10.25 30.8333 10.75 28.8C11.2833 26.7667 11.95 24.6667 12.75 22.5C12.5167 22.4333 12.2333 22.3833 11.9 22.35C11.6 22.2833 11.3 22.1833 11 22.05V20.5C11.5333 20.5667 11.9667 20.6167 12.3 20.65C12.6667 20.6833 13.0333 20.7167 13.4 20.75C14.1 18.9833 14.85 17.2833 15.65 15.65C16.4833 13.9833 17.3 12.5 18.1 11.2C18.9333 9.9 19.7167 8.88333 20.45 8.15C21.1833 7.38333 21.8333 7 22.4 7C22.7333 7 23.05 7.13333 23.35 7.4C23.65 7.63333 23.8 7.98333 23.8 8.45C23.8 9.11666 23.45 10.0667 22.75 11.3C22.0833 12.5333 21.25 13.9833 20.25 15.65C19.25 17.2833 18.2833 19.0333 17.35 20.9C17.6167 20.9 17.8833 20.9 18.15 20.9C18.4167 20.9 18.6667 20.9 18.9 20.9C20.3667 20.9 21.6833 20.8833 22.85 20.85C24.05 20.7833 25.2667 20.6833 26.5 20.55V22.2C24.6667 22.3667 22.9833 22.5 21.45 22.6C19.9167 22.7 18.45 22.7667 17.05 22.8C16.95 22.8 16.85 22.8 16.75 22.8C16.65 22.8 16.55 22.8 16.45 22.8C15.75 24.4333 15.1333 26.1167 14.6 27.85C14.1 29.55 13.85 31.2167 13.85 32.85C13.85 34.2167 14.0667 35.1833 14.5 35.75C14.9333 36.3167 15.6167 36.6 16.55 36.6C18.2167 36.6 19.9167 35.85 21.65 34.35C23.4167 32.8167 24.95 30.75 26.25 28.15L26.95 28.65C26.0833 30.6167 25 32.4 23.7 34C22.4333 35.6 21.05 36.85 19.55 37.75C18.05 38.6833 16.5 39.15 14.9 39.15Z" fill="#0B131D"/>
    <path d="M30.5543 39.05C28.421 39.05 26.771 38.4667 25.6043 37.3C24.471 36.1667 23.9043 34.7333 23.9043 33C23.9043 31.5333 24.271 29.9833 25.0043 28.35C25.771 26.6833 26.7876 25.1333 28.0543 23.7C29.321 22.2333 30.721 21.05 32.2543 20.15C33.7876 19.25 35.321 18.8 36.8543 18.8C37.721 18.8 38.5376 19.0333 39.3043 19.5C40.1043 19.9333 40.5043 20.8167 40.5043 22.15C40.5043 23.4167 40.1376 24.6 39.4043 25.7C38.671 26.8 37.6876 27.7833 36.4543 28.65C35.221 29.5167 33.8543 30.2333 32.3543 30.8C30.8876 31.3333 29.4043 31.6833 27.9043 31.85C27.871 31.9833 27.8376 32.1333 27.8043 32.3C27.8043 32.4333 27.8043 32.6667 27.8043 33C27.8043 33.1667 27.821 33.4667 27.8543 33.9C27.921 34.3 28.071 34.7333 28.3043 35.2C28.5376 35.6667 28.921 36.0667 29.4543 36.4C29.9876 36.7333 30.721 36.9 31.6543 36.9C33.0543 36.9 34.4543 36.5167 35.8543 35.75C37.2876 34.95 38.621 33.9 39.8543 32.6C41.121 31.3 42.171 29.85 43.0043 28.25L44.0043 29.05C43.1043 31.05 41.9376 32.8 40.5043 34.3C39.1043 35.8 37.5376 36.9667 35.8043 37.8C34.1043 38.6333 32.3543 39.05 30.5543 39.05ZM28.4543 30C29.321 29.9 30.2876 29.6 31.3543 29.1C32.421 28.6 33.4376 27.9667 34.4043 27.2C35.4043 26.4333 36.221 25.6 36.8543 24.7C37.4876 23.7667 37.8043 22.8333 37.8043 21.9C37.8043 21.5333 37.7376 21.2833 37.6043 21.15C37.471 21.0167 37.2543 20.95 36.9543 20.95C36.1876 20.95 35.3876 21.2333 34.5543 21.8C33.721 22.3333 32.9043 23.05 32.1043 23.95C31.3043 24.8167 30.5876 25.7833 29.9543 26.85C29.321 27.9167 28.821 28.9667 28.4543 30Z" fill="#0B131D"/>
    <path d="M46.4953 38.35C44.9286 38.35 43.762 37.8333 42.9953 36.8C42.262 35.7667 41.8953 34.4333 41.8953 32.8C41.8953 31.2333 42.1953 29.3667 42.7953 27.2C43.3953 25.0333 44.1786 22.75 45.1453 20.35C46.1453 17.95 47.2286 15.6 48.3953 13.3C49.5953 11 50.7953 8.91667 51.9953 7.05C53.1953 5.15 54.2953 3.65 55.2953 2.55C56.3286 1.41666 57.162 0.849998 57.7953 0.849998C58.2286 0.849998 58.5953 1.08333 58.8953 1.55C59.1953 1.98333 59.4286 2.51667 59.5953 3.15C59.7953 3.78333 59.8953 4.38333 59.8953 4.95C59.8953 5.81666 59.662 6.96666 59.1953 8.4C58.762 9.8 58.1286 11.35 57.2953 13.05C56.4953 14.75 55.5286 16.5 54.3953 18.3C53.2953 20.0667 52.062 21.7667 50.6953 23.4C49.362 25 47.9286 26.4 46.3953 27.6C46.262 28.4333 46.1286 29.3167 45.9953 30.25C45.8953 31.15 45.8453 31.9333 45.8453 32.6C45.8453 34.9 46.562 36.05 47.9953 36.05C48.7286 36.05 49.4786 35.75 50.2453 35.15C51.0453 34.5167 51.812 33.7 52.5453 32.7C53.2786 31.6667 53.9453 30.55 54.5453 29.35C54.8786 27.65 55.3786 25.8167 56.0453 23.85C56.712 21.8833 57.4786 19.9167 58.3453 17.95C59.2453 15.95 60.1953 14.05 61.1953 12.25C62.1953 10.4167 63.1786 8.8 64.1453 7.4C65.112 5.96666 65.9953 4.85 66.7953 4.05C67.6286 3.21666 68.312 2.8 68.8453 2.8C69.2786 2.8 69.6453 3.03333 69.9453 3.5C70.2786 3.93333 70.5286 4.48333 70.6953 5.15C70.8953 5.78333 70.9953 6.4 70.9953 7C70.9953 8.03333 70.712 9.4 70.1453 11.1C69.5786 12.7667 68.762 14.6 67.6953 16.6C66.662 18.5667 65.3953 20.5167 63.8953 22.45C62.3953 24.3833 60.6953 26.1 58.7953 27.6C58.6286 28.3667 58.4953 29.1833 58.3953 30.05C58.2953 30.9167 58.2453 31.6833 58.2453 32.35C58.2453 34.8167 58.9286 36.05 60.2953 36.05C61.162 36.05 62.0453 35.6667 62.9453 34.9C63.8453 34.1 64.6953 33.0833 65.4953 31.85C66.2953 30.6167 66.9786 29.3667 67.5453 28.1L68.7953 28.75C67.3953 31.7167 65.862 34.0667 64.1953 35.8C62.562 37.5 60.762 38.35 58.7953 38.35C57.262 38.35 56.1286 37.85 55.3953 36.85C54.662 35.85 54.2786 34.55 54.2453 32.95C53.112 34.65 51.8953 35.9667 50.5953 36.9C49.3286 37.8667 47.962 38.35 46.4953 38.35ZM47.2953 24.8C48.3953 23.6333 49.4453 22.35 50.4453 20.95C51.4786 19.5167 52.4286 18.0667 53.2953 16.6C54.162 15.1333 54.912 13.7167 55.5453 12.35C56.212 10.9833 56.7286 9.75 57.0953 8.65C57.462 7.55 57.6453 6.68333 57.6453 6.05C57.6453 5.88333 57.6453 5.75 57.6453 5.65C57.6453 5.55 57.612 5.48333 57.5453 5.45C57.312 5.45 56.8953 5.83333 56.2953 6.6C55.6953 7.33333 54.9953 8.35 54.1953 9.65C53.4286 10.95 52.612 12.4333 51.7453 14.1C50.912 15.7333 50.0953 17.4833 49.2953 19.35C48.5286 21.1833 47.862 23 47.2953 24.8ZM59.5953 24.85C60.9286 23.45 62.1453 21.95 63.2453 20.35C64.3786 18.7167 65.3453 17.1167 66.1453 15.55C66.9786 13.95 67.612 12.5 68.0453 11.2C68.512 9.86666 68.7453 8.81667 68.7453 8.05C68.7453 7.88333 68.7453 7.76667 68.7453 7.7C68.7453 7.6 68.7286 7.51667 68.6953 7.45C68.362 7.45 67.8286 7.93333 67.0953 8.9C66.3953 9.86667 65.5953 11.1833 64.6953 12.85C63.7953 14.4833 62.8953 16.3333 61.9953 18.4C61.0953 20.4667 60.2953 22.6167 59.5953 24.85Z" fill="#0B131D"/>
    <path d="M70.307 38.35C68.8404 38.35 67.7404 37.9167 67.007 37.05C66.2737 36.1833 65.907 35.1333 65.907 33.9C65.907 33.1333 66.0404 32.1667 66.307 31C66.5737 29.8333 66.9404 28.6167 67.407 27.35C67.907 26.05 68.4737 24.8333 69.107 23.7C69.7404 22.5667 70.4237 21.65 71.157 20.95C71.8904 20.2167 72.6237 19.85 73.357 19.85C73.757 19.85 74.107 19.9833 74.407 20.25C74.707 20.4833 74.857 20.8333 74.857 21.3C74.857 21.7333 74.5904 22.3833 74.057 23.25C73.557 24.1167 72.957 25.1167 72.257 26.25C71.5904 27.3833 70.9904 28.5667 70.457 29.8C69.957 31 69.707 32.15 69.707 33.25C69.707 34.3167 69.8904 35.0333 70.257 35.4C70.657 35.7333 71.2237 35.9 71.957 35.9C73.0904 35.9 74.3237 35.3333 75.657 34.2C76.9904 33.0667 78.3737 31.0833 79.807 28.25L80.557 29.05C79.3904 31.9833 77.907 34.2667 76.107 35.9C74.307 37.5333 72.3737 38.35 70.307 38.35ZM76.207 15.8C75.5737 15.8 74.9904 15.65 74.457 15.35C73.957 15.0167 73.707 14.5167 73.707 13.85C73.707 13.05 74.1404 12.3667 75.007 11.8C75.8737 11.2333 76.7737 10.95 77.707 10.95C78.307 10.95 78.807 11.0833 79.207 11.35C79.6404 11.6167 79.857 12.1 79.857 12.8C79.857 13.5 79.4737 14.1833 78.707 14.85C77.9404 15.4833 77.107 15.8 76.207 15.8Z" fill="#0B131D"/>
    <path d="M82.2141 38.8C80.9807 38.8 80.1141 38.2333 79.6141 37.1C79.1474 36 78.9141 34.5667 78.9141 32.8C78.9141 32.4333 78.9307 31.7833 78.9641 30.85C78.9974 29.8833 79.0474 28.55 79.1141 26.85C79.1474 25.85 79.2474 25.1667 79.4141 24.8C79.6141 24.4333 80.1474 24.25 81.0141 24.25C81.8141 24.25 82.2807 24.4167 82.4141 24.75C82.5807 25.05 82.6641 25.6833 82.6641 26.65C82.6641 27.65 82.6141 28.7167 82.5141 29.85C82.4474 30.9833 82.4141 32.0833 82.4141 33.15C82.4141 34.1833 82.4641 34.95 82.5641 35.45C82.6641 35.9167 82.9141 36.15 83.3141 36.15C83.9141 36.15 84.5641 35.8333 85.2641 35.2C85.9641 34.5333 86.6641 33.7 87.3641 32.7C88.0974 31.6667 88.7807 30.5667 89.4141 29.4C90.0807 28.2 90.6641 27.05 91.1641 25.95C91.2307 23.6833 91.4974 22.1667 91.9641 21.4C92.4307 20.6333 93.0307 20.25 93.7641 20.25C94.5974 20.25 95.1641 20.5167 95.4641 21.05C95.7641 21.5833 95.9141 22.05 95.9141 22.45C95.9141 22.95 95.7807 23.4 95.5141 23.8C95.2474 24.2 94.9807 24.75 94.7141 25.45C94.4474 26.15 94.3141 27.2167 94.3141 28.65C94.3141 29.1167 94.3474 29.6333 94.4141 30.2C94.5141 30.7333 94.7141 31.2 95.0141 31.6C95.3474 31.9667 95.8307 32.15 96.4641 32.15C97.1307 32.15 97.7641 31.8833 98.3641 31.35C98.9974 30.7833 99.6641 29.8167 100.364 28.45L100.914 28.9C100.147 30.7333 99.2807 32.0167 98.3141 32.75C97.3807 33.4833 96.4807 33.85 95.6141 33.85C94.5141 33.85 93.6141 33.4167 92.9141 32.55C92.2474 31.65 91.7307 30.5333 91.3641 29.2C90.5641 30.7 89.6474 32.1833 88.6141 33.65C87.6141 35.1167 86.5641 36.3333 85.4641 37.3C84.3641 38.3 83.2807 38.8 82.2141 38.8Z" fill="#0B131D"/>
    <path d="M104.822 39.05C102.689 39.05 101.039 38.4667 99.8719 37.3C98.7385 36.1667 98.1719 34.7333 98.1719 33C98.1719 31.5333 98.5385 29.9833 99.2719 28.35C100.039 26.6833 101.055 25.1333 102.322 23.7C103.589 22.2333 104.989 21.05 106.522 20.15C108.055 19.25 109.589 18.8 111.122 18.8C111.989 18.8 112.805 19.0333 113.572 19.5C114.372 19.9333 114.772 20.8167 114.772 22.15C114.772 23.4167 114.405 24.6 113.672 25.7C112.939 26.8 111.955 27.7833 110.722 28.65C109.489 29.5167 108.122 30.2333 106.622 30.8C105.155 31.3333 103.672 31.6833 102.172 31.85C102.139 31.9833 102.105 32.1333 102.072 32.3C102.072 32.4333 102.072 32.6667 102.072 33C102.072 33.1667 102.089 33.4667 102.122 33.9C102.189 34.3 102.339 34.7333 102.572 35.2C102.805 35.6667 103.189 36.0667 103.722 36.4C104.255 36.7333 104.989 36.9 105.922 36.9C107.322 36.9 108.722 36.5167 110.122 35.75C111.555 34.95 112.889 33.9 114.122 32.6C115.389 31.3 116.439 29.85 117.272 28.25L118.272 29.05C117.372 31.05 116.205 32.8 114.772 34.3C113.372 35.8 111.805 36.9667 110.072 37.8C108.372 38.6333 106.622 39.05 104.822 39.05ZM102.722 30C103.589 29.9 104.555 29.6 105.622 29.1C106.689 28.6 107.705 27.9667 108.672 27.2C109.672 26.4333 110.489 25.6 111.122 24.7C111.755 23.7667 112.072 22.8333 112.072 21.9C112.072 21.5333 112.005 21.2833 111.872 21.15C111.739 21.0167 111.522 20.95 111.222 20.95C110.455 20.95 109.655 21.2333 108.822 21.8C107.989 22.3333 107.172 23.05 106.372 23.95C105.572 24.8167 104.855 25.7833 104.222 26.85C103.589 27.9167 103.089 28.9667 102.722 30Z" fill="#0B131D"/>
    <path d="M121.064 38.85V33.3955H122.083V34.2832H122.15C122.264 33.9826 122.45 33.7482 122.708 33.5801C122.966 33.4097 123.275 33.3244 123.635 33.3244C123.999 33.3244 124.305 33.4097 124.551 33.5801C124.8 33.7506 124.983 33.9849 125.101 34.2832H125.158C125.288 33.992 125.496 33.76 125.78 33.5872C126.064 33.412 126.402 33.3244 126.795 33.3244C127.29 33.3244 127.694 33.4795 128.006 33.7896C128.321 34.0998 128.479 34.5673 128.479 35.1923V38.85H127.417V35.2918C127.417 34.9224 127.316 34.6549 127.115 34.4892C126.914 34.3235 126.673 34.2406 126.394 34.2406C126.048 34.2406 125.78 34.3472 125.588 34.5602C125.396 34.7709 125.3 35.042 125.3 35.3734V38.85H124.242V35.2243C124.242 34.9284 124.15 34.6904 123.965 34.5105C123.78 34.3306 123.54 34.2406 123.244 34.2406C123.043 34.2406 122.857 34.2939 122.687 34.4004C122.519 34.5046 122.382 34.6502 122.278 34.8372C122.176 35.0242 122.126 35.2409 122.126 35.4871V38.85H121.064Z" fill="#0B131D"/>
    <path d="M132.253 38.9601C131.715 38.9601 131.252 38.8453 130.864 38.6156C130.478 38.3836 130.18 38.0581 129.969 37.6391C129.761 37.2177 129.657 36.7241 129.657 36.1582C129.657 35.5995 129.761 35.1071 129.969 34.681C130.18 34.2548 130.473 33.9222 130.85 33.6831C131.229 33.444 131.671 33.3244 132.178 33.3244C132.486 33.3244 132.784 33.3753 133.073 33.4771C133.362 33.5789 133.621 33.7387 133.851 33.9565C134.08 34.1743 134.261 34.4572 134.394 34.8053C134.526 35.1509 134.593 35.5711 134.593 36.0659V36.4423H130.257V35.6469H133.552C133.552 35.3675 133.495 35.1201 133.382 34.9047C133.268 34.6869 133.108 34.5152 132.902 34.3898C132.699 34.2643 132.46 34.2016 132.185 34.2016C131.887 34.2016 131.626 34.275 131.404 34.4217C131.184 34.5661 131.013 34.7555 130.892 34.9899C130.774 35.2219 130.715 35.4741 130.715 35.7463V36.3678C130.715 36.7323 130.779 37.0425 130.907 37.2982C131.037 37.5538 131.218 37.7491 131.45 37.8841C131.682 38.0167 131.953 38.083 132.263 38.083C132.464 38.083 132.648 38.0545 132.814 37.9977C132.979 37.9385 133.123 37.8509 133.243 37.7349C133.364 37.6189 133.456 37.4757 133.52 37.3053L134.525 37.4864C134.445 37.7823 134.3 38.0415 134.092 38.2641C133.886 38.4842 133.627 38.6559 133.314 38.779C133.004 38.8997 132.65 38.9601 132.253 38.9601Z" fill="#0B131D"/>
</svg>
