<svg width="20" height="20" viewBox="0 0 20 20" fill="none" xmlns="http://www.w3.org/2000/svg">
    <path fill-rule="evenodd" clip-rule="evenodd" d="M10 9.99999C8.11598 9.99999 6.58382 8.47509 6.58382 6.59999C6.58382 4.72489 8.11598 3.19999 10 3.19999C11.884 3.19999 13.4162 4.72489 13.4162 6.59999C13.4162 8.47509 11.884 9.99999 10 9.99999ZM13.2095 10.572C14.5649 9.48657 15.3549 7.7313 15.0645 5.80944C14.7272 3.57989 12.8636 1.79578 10.6141 1.53568C7.50961 1.17613 4.87573 3.58164 4.87573 6.59999C4.87573 8.20649 5.62387 9.63787 6.7905 10.572C3.92431 11.6439 1.83189 14.1607 1.50394 17.5573C1.45611 18.0597 1.84983 18.5 2.35714 18.5C2.79185 18.5 3.16251 18.1736 3.20094 17.7427C3.54341 13.9491 6.46169 11.7 10 11.7C13.5383 11.7 16.4566 13.9491 16.7991 17.7427C16.8375 18.1736 17.2082 18.5 17.6429 18.5C18.1502 18.5 18.5439 18.0597 18.4961 17.5573C18.1681 14.1607 16.0757 11.6439 13.2095 10.572Z" fill="#5A6472"/>
</svg>
